<svg width="35" height="35" viewBox="0 0 35 35" fill="none" xmlns="http://www.w3.org/2000/svg">
<path d="M17.5 35C22.1413 35 26.5925 33.1563 29.8744 29.8744C33.1563 26.5925 35 22.1413 35 17.5C35 12.8587 33.1563 8.40752 29.8744 5.12563C26.5925 1.84374 22.1413 0 17.5 0C12.8587 0 8.40752 1.84374 5.12563 5.12563C1.84374 8.40752 0 12.8587 0 17.5C0 22.1413 1.84374 26.5925 5.12563 29.8744C8.40752 33.1563 12.8587 35 17.5 35ZM25.2246 14.2871L16.4746 23.0371C15.832 23.6797 14.793 23.6797 14.1572 23.0371L9.78223 18.6621C9.13965 18.0195 9.13965 16.9805 9.78223 16.3447C10.4248 15.709 11.4639 15.7021 12.0996 16.3447L15.3125 19.5576L22.9004 11.9629C23.543 11.3203 24.582 11.3203 25.2178 11.9629C25.8535 12.6055 25.8604 13.6445 25.2178 14.2803L25.2246 14.2871Z" fill="#04D0EF"/>
</svg>
