<svg width="145" height="157" viewBox="0 0 145 157" fill="none" xmlns="http://www.w3.org/2000/svg">
<path d="M21.3126 139.979L9.92334 1.65833H135.076L123.676 139.958L72.424 155.343L21.3126 139.979Z" fill="#04D0EF"/>
<path d="M72.5012 143.584L113.916 131.151L123.659 12.9672H72.5012V143.584Z" fill="#04D0EF"/>
<path d="M72.5012 63.0809H93.234L94.6658 45.7091H72.5012V28.7445H111.789L111.413 33.2963L107.562 80.0455H72.5012V63.0809Z" fill="white"/>
<path d="M72.594 107.139L72.5249 107.161L55.0761 102.06L53.9603 88.5295H38.2346L40.4289 115.167L72.5226 124.811L72.594 124.789V107.139Z" fill="white"/>
<path d="M91.9016 79.3279L90.0143 102.046L72.5396 107.154V124.804L104.659 115.166L104.895 112.299L107.62 79.3279H91.9016Z" fill="white"/>
<path d="M72.5543 28.7445V45.7091H34.7093L34.3955 41.8969L33.6818 33.2963L33.3069 28.7445H72.5543ZM72.5011 63.0834V80.0479H55.2721L54.9583 76.2358L54.2435 67.6351L53.8697 63.0834H72.5011Z" fill="white"/>
</svg>
