<svg width="145" height="157" viewBox="0 0 145 157" fill="none" xmlns="http://www.w3.org/2000/svg">
<path d="M21.5652 139.676L10.2314 2.03735H134.768L123.422 139.655L72.424 154.963L21.5652 139.676Z" fill="#04D0EF"/>
<path d="M72.5 143.262L113.709 130.891L123.405 13.291H72.5V143.262Z" fill="#04D0EF"/>
<path d="M72.5 64.3394H51.8692L50.4441 47.0522H72.5V30.1722H33.4055L33.7793 34.7007L37.6105 81.2206H72.5V64.3394ZM72.5 108.18L72.4309 108.201L55.0683 103.123L53.9593 89.6617H38.3072L40.4913 116.167L72.4286 125.766L72.5 125.745V108.18Z" fill="white"/>
<path d="M72.4456 64.3394V81.2206H91.6433L89.8342 103.113L72.4456 108.195V125.758L104.408 116.167L104.642 113.315L108.306 68.8727L108.685 64.3394H104.485H72.4456ZM72.4456 30.1722V47.0522H110.105L110.417 43.2597L111.129 34.7007L111.502 30.1722H72.4456Z" fill="white"/>
</svg>
