<svg width="156" height="147" viewBox="0 0 156 147" fill="none" xmlns="http://www.w3.org/2000/svg">
<path d="M1.71606 21.6169C1.71606 10.5712 10.6704 1.61694 21.7161 1.61694H134.284C145.33 1.61694 154.284 10.5712 154.284 21.6169V125.384C154.284 136.43 145.33 145.384 134.284 145.384H21.7161C10.6704 145.384 1.71606 136.43 1.71606 125.384V21.6169Z" fill="#04D0EF"/>
<path d="M141.798 111.095C140.68 104.536 136.142 99.0274 122.698 93.8905C118.028 91.8681 112.821 90.4199 111.27 87.0848C110.719 85.144 110.646 84.0507 110.994 82.8758C111.995 79.063 116.825 77.8744 120.653 78.9677C123.118 79.7463 125.452 81.5367 126.86 84.3929C133.443 80.3757 133.43 80.4021 138.027 77.6412C136.344 75.1824 135.446 74.0478 134.344 72.9958C130.384 68.8281 124.989 66.6817 116.36 66.8459L111.866 67.3937C107.558 68.4193 103.454 70.5496 101.047 73.4058C93.8244 81.1279 95.8841 94.6427 104.672 100.205C113.33 106.328 126.049 107.721 127.674 113.447C129.255 120.457 122.207 122.727 115.201 121.92C110.039 120.909 107.167 118.436 104.063 113.94C98.3496 117.056 98.3496 117.056 92.4752 120.239C93.8682 123.109 95.332 124.408 97.6671 126.894C108.719 137.458 136.375 136.939 141.335 120.95C141.536 120.401 142.872 116.74 141.798 111.095ZM84.6569 67.6923H70.3866L70.3281 102.458C70.3281 109.851 70.7339 116.63 69.4579 118.707C67.3702 122.793 61.9601 122.287 59.4946 121.494C56.9852 120.332 55.7092 118.68 54.2308 116.344C53.825 115.673 53.5203 115.154 53.4179 115.114L41.8154 121.809C43.7447 125.54 46.5868 128.779 50.2272 130.883C55.6653 133.958 62.9741 134.901 70.6181 133.247C75.5931 131.882 79.8855 129.053 82.1329 124.748C85.3821 119.103 84.685 112.271 84.6557 104.715C84.7288 92.386 84.6569 80.0598 84.6569 67.6923Z" fill="white"/>
</svg>
