<svg width="150" height="160" viewBox="0 0 150 160" fill="none" xmlns="http://www.w3.org/2000/svg">
<path d="M122.52 55.375C120.938 54.8125 119.355 54.2812 117.773 53.7812C118.037 52.625 118.271 51.4687 118.506 50.3125C122.109 31.6875 119.736 16.7187 111.738 11.7812C104.033 7.0625 91.4648 11.9687 78.75 23.7812C77.4902 24.9375 76.2598 26.1562 75.0879 27.375C74.2969 26.5625 73.4766 25.75 72.6562 24.9687C59.3262 12.3437 45.9668 7.03125 37.9688 12C30.293 16.75 28.0078 30.8438 31.2305 48.4688C31.5527 50.2188 31.9043 51.9375 32.3145 53.6875C30.4395 54.25 28.5938 54.875 26.8652 55.5312C11.2207 61.3125 0 70.4375 0 79.875C0 89.625 11.9531 99.4062 28.2129 105.344C29.5312 105.812 30.8496 106.281 32.1973 106.687C31.7578 108.562 31.377 110.406 31.0254 112.312C27.9492 129.656 30.3516 143.406 38.0273 148.125C45.9375 153 59.2383 148 72.1875 135.906C73.2129 134.937 74.2383 133.938 75.2637 132.875C76.5527 134.219 77.9004 135.5 79.248 136.75C91.7871 148.25 104.18 152.906 111.826 148.188C119.736 143.312 122.314 128.531 118.975 110.531C118.711 109.156 118.418 107.75 118.096 106.312C119.033 106.031 119.941 105.719 120.85 105.406C137.754 99.4375 150 89.7812 150 79.875C150 70.4062 138.457 61.2187 122.52 55.375ZM82.8809 28.8438C93.7793 18.7187 103.945 14.75 108.574 17.5937C113.525 20.625 115.43 32.875 112.324 48.9687C112.119 50.0312 111.914 51.0625 111.65 52.0937C105.146 50.5312 98.5547 49.4062 91.9336 48.7812C88.125 42.9688 83.9648 37.4062 79.4531 32.1875C80.5957 31.0312 81.709 29.9375 82.8809 28.8438ZM48.9844 96.0938C50.4785 98.8125 52.002 101.531 53.6133 104.187C49.043 103.656 44.502 102.875 40.0195 101.844C41.3086 97.3437 42.9199 92.6875 44.7949 87.9375C46.1426 90.6875 47.5195 93.4062 48.9844 96.0938ZM40.1074 58.5C44.3262 57.5 48.8086 56.6875 53.4668 56.0625C51.9141 58.6562 50.3906 61.3125 48.9551 64C47.5195 66.6562 46.1133 69.375 44.7949 72.125C42.9492 67.4687 41.3965 62.9062 40.1074 58.5ZM48.1348 80.0312C50.0684 75.7188 52.1777 71.5 54.4043 67.3437C56.6309 63.1875 59.0332 59.1562 61.5527 55.1875C65.9473 54.8437 70.4297 54.6562 75 54.6562C79.5703 54.6562 84.082 54.8437 88.4473 55.1875C90.9375 59.125 93.3105 63.1562 95.5664 67.2812C97.8223 71.4062 99.9316 75.625 101.924 79.9062C99.9609 84.2187 97.8516 88.4688 95.5957 92.6562C93.3691 96.8125 90.9961 100.844 88.5059 104.844C84.1406 105.188 79.5996 105.344 75 105.344C70.4004 105.344 65.9473 105.188 61.6406 104.906C59.0918 100.938 56.6895 96.875 54.4336 92.7188C52.1777 88.5625 50.0977 84.3438 48.1348 80.0312ZM101.045 96.0312C102.539 93.2812 103.945 90.5 105.322 87.6875C107.197 92.2188 108.838 96.8125 110.273 101.531C105.732 102.625 101.133 103.469 96.5039 104.031C98.0859 101.406 99.5801 98.7187 101.045 96.0312ZM105.264 72.125C103.887 69.375 102.48 66.625 101.016 63.9375C99.5801 61.2812 98.0859 58.6562 96.5332 56.0625C101.25 56.6875 105.762 57.5312 109.98 58.5625C108.633 63.1875 107.051 67.6875 105.264 72.125ZM75.0586 36.9688C78.1348 40.5312 81.0352 44.2812 83.7305 48.1562C77.9297 47.875 72.0996 47.875 66.2988 48.1562C69.1699 44.125 72.1289 40.375 75.0586 36.9688ZM41.0742 17.8125C45.9961 14.75 56.9238 19.125 68.4375 30C69.1699 30.6875 69.9023 31.4375 70.6641 32.1875C66.123 37.4062 61.9336 42.9688 58.0957 48.7812C51.4746 49.4062 44.9121 50.5 38.4082 52.0312C38.0273 50.4375 37.7051 48.8125 37.3828 47.1875C34.6289 32.0625 36.4453 20.6562 41.0742 17.8125ZM33.8965 100.188C32.666 99.8125 31.4648 99.4062 30.2637 98.9688C24.0234 96.875 16.9336 93.5625 11.8066 89.2188C8.84766 87.0312 6.85547 83.6562 6.29883 79.875C6.29883 74.1562 15.5566 66.8437 28.916 61.875C30.5859 61.25 32.2852 60.6875 33.9844 60.1562C35.9766 66.9375 38.3789 73.5937 41.1621 80.0312C38.3496 86.5625 35.918 93.3125 33.8965 100.188ZM68.0566 130.812C63.2227 135.531 57.6269 139.281 51.5332 141.844C48.2812 143.5 44.5312 143.656 41.1914 142.25C36.5332 139.375 34.5996 128.344 37.2363 113.5C37.5586 111.75 37.9102 110 38.3203 108.281C44.8828 109.781 51.5039 110.812 58.2129 111.344C62.0801 117.187 66.3281 122.781 70.8691 128.031C69.9316 129 68.9941 129.938 68.0566 130.812ZM75.2344 123.219C72.2461 119.781 69.2578 115.969 66.3574 111.875C69.1699 112 72.0703 112.062 75 112.062C78.0176 112.062 80.9766 112 83.9062 111.844C81.2109 115.812 78.3105 119.594 75.2344 123.219ZM113.525 132.594C113.262 136.406 111.504 139.969 108.691 142.375C104.033 145.25 94.1016 141.5 83.3789 131.687C82.1484 130.562 80.918 129.344 79.6582 128.094C84.1406 122.812 88.2715 117.219 92.0215 111.344C98.7305 110.75 105.41 109.656 112.002 108.062C112.295 109.344 112.559 110.625 112.793 111.875C114.229 118.625 114.463 125.656 113.525 132.594ZM118.857 99C118.037 99.2812 117.217 99.5625 116.367 99.8125C114.316 93 111.797 86.3438 108.896 79.875C111.709 73.5 114.082 66.9375 116.074 60.2187C117.598 60.6875 119.062 61.1875 120.469 61.6875C134.121 66.6875 143.701 74.125 143.701 79.8125C143.701 85.9375 133.477 93.8437 118.857 99ZM75 94.3125C82.4121 94.3125 88.418 87.9062 88.418 80C88.418 72.0937 82.4121 65.6875 75 65.6875C67.5879 65.6875 61.582 72.0937 61.582 80C61.582 87.9062 67.5879 94.3125 75 94.3125Z" fill="#04D0EF"/>
</svg>
