<svg width="181" height="174" viewBox="0 0 181 174" fill="none" xmlns="http://www.w3.org/2000/svg">
<path fill-rule="evenodd" clip-rule="evenodd" d="M1.72363 76.3371C1.72363 77.2927 2.01634 77.9234 2.18038 78.5365C3.24941 82.5236 5.54726 85.9451 8.27357 89.0662C12.1566 93.5141 16.9121 97.0947 21.7835 100.462C26.0087 103.382 30.3202 106.237 34.5624 109.135C35.2906 109.632 35.9793 110.205 36.7698 110.815C36.0896 111.168 35.524 111.48 34.9357 111.766C29.3374 114.496 23.9513 117.556 18.9865 121.263C15.9944 123.498 13.1012 125.873 11.0579 128.976C7.77016 133.968 6.60639 139.286 9.05696 144.964C9.77248 146.622 10.8641 148.055 12.404 149.114C12.9032 149.456 13.4632 149.796 14.0472 149.93C15.5433 150.268 17.0676 150.49 18.5821 150.757L22.8709 150.755C27.6137 150.348 31.9308 148.786 35.8322 146.198C41.9297 142.153 46.0375 136.729 47.8037 129.767C49.0877 124.708 49.14 119.643 47.6269 114.606C47.4821 114.14 47.3151 113.68 47.1264 113.228C46.9425 112.775 46.7262 112.335 46.4716 111.771L56.1947 106.396L56.3404 106.515C56.1636 107.071 55.9756 107.626 55.8158 108.187C54.6605 112.244 53.8926 116.371 54.1684 120.581C54.4625 125.067 55.7649 129.266 58.4968 133.013C60.7056 136.045 65.9687 136.158 68.3161 133.115C69.149 132.035 69.9564 130.905 70.563 129.699C72.1482 126.552 73.616 123.35 75.1304 120.169L75.3949 119.587C75.286 121.093 75.1587 122.416 75.1007 123.74C75.0102 125.807 75.1361 127.863 75.8714 129.83C76.5007 131.513 77.5711 132.77 79.5763 132.992C80.9479 133.143 82.041 132.539 83.0492 131.774C84.6111 130.587 85.9058 129.108 86.8544 127.425C89.5426 122.68 92.3028 117.962 94.7393 113.097C97.3751 107.835 99.68 102.419 102.128 97.0675L102.532 96.1187C103.111 98.3032 103.514 100.443 104.256 102.468C105.118 104.819 106.186 107.113 107.348 109.344C107.899 110.398 107.835 111.081 107.073 111.965C103.883 115.662 100.748 119.405 97.6098 123.143C96.9155 123.968 96.224 124.808 95.6457 125.71C95.2948 126.279 95.0641 126.909 94.9669 127.564C94.8696 128.167 95.0189 128.783 95.3835 129.282C95.748 129.782 96.2996 130.126 96.9226 130.243C98.1798 130.503 99.4689 130.592 100.752 130.505C105.131 130.195 109.108 128.718 112.623 126.214C117.178 122.97 118.64 118.544 117.537 113.298C117.238 111.875 116.711 110.491 116.198 109.12C115.967 108.501 115.952 108.068 116.372 107.491C120.013 102.493 123.124 97.1899 126.017 91.7646C126.131 91.5512 126.249 91.3378 126.45 91.1094C127.387 95.7992 128.798 100.319 131.327 104.42C130.037 105.615 128.76 106.699 127.605 107.892C125.061 110.521 122.855 113.376 121.704 116.857C121.209 118.358 120.829 119.883 121.049 121.486C121.391 123.975 123.513 125.593 126.059 125.026C131.509 123.813 136.214 121.345 139.651 116.971C141.965 114.027 142.175 110.743 141.207 107.302C140.941 106.367 140.626 105.447 140.286 104.374C141.631 103.973 142.942 103.492 144.298 103.194C151.339 101.65 158.303 101.919 165.087 104.363C169.048 105.791 172.248 108.179 174.146 111.936C176.464 116.53 175.182 120.888 170.679 123.791C170.259 124.062 169.778 124.275 169.43 124.614C169.319 124.738 169.235 124.883 169.185 125.04C169.135 125.197 169.12 125.362 169.14 125.525C169.17 125.692 169.629 125.901 169.894 125.899C171.374 125.888 172.575 125.141 173.727 124.375C176.615 122.454 178.722 119.87 179.176 116.467L179.265 116.212L179.156 113.996C179.112 113.868 179.188 113.742 179.179 113.645C178.565 108.69 175.812 104.847 171.807 101.835C167.169 98.3481 161.692 96.9126 155.9 96.6855C151.203 96.4912 146.511 97.1854 142.092 98.7287C140.824 99.1705 139.566 99.6938 138.291 100.187C138.12 99.8896 137.936 99.6041 137.785 99.3091C136.475 96.7318 134.889 94.2686 134.538 91.3133C134.289 89.2144 133.984 87.1183 134.503 85.0425C135.002 83.0456 135.652 81.0826 136.265 79.1129C136.58 78.0988 136.358 77.5306 135.351 77.0738C135 76.9057 134.626 76.7875 134.24 76.7231C131.765 76.3778 129.324 76.575 126.928 77.2451C126.079 77.483 125.463 77.9398 125.275 78.8424C125.167 79.3603 124.948 79.8565 124.795 80.3676C124.169 82.4923 123.725 84.6578 122.712 86.6819C120.175 91.7592 117.279 96.6448 114.316 101.495C113.995 102.018 113.657 102.532 113.252 103.167C112.211 101.074 111.101 99.1949 110.765 96.9928C110.384 94.5024 110.085 92.0161 110.729 89.5447C111.209 87.7014 111.835 85.8921 112.412 84.0733C112.685 83.2087 112.559 82.7547 111.745 82.2993C111.333 82.0695 110.868 81.8656 110.404 81.799C107.867 81.4275 105.274 81.6314 102.833 82.3944C102.066 82.6337 101.662 83.1108 101.428 83.8721C100.738 86.1178 100.149 88.4178 99.1808 90.5534C95.2582 99.199 91.2225 107.8 87.191 116.399C86.3496 118.195 85.364 119.928 84.4152 121.676C84.1748 122.119 83.8241 122.51 83.5243 122.926C83.2839 122.652 83.1906 122.465 83.192 122.277C83.1991 121.172 83.0619 120.034 83.2811 118.966C83.9541 115.734 84.6981 112.517 85.5125 109.315C86.1771 106.67 86.9506 104.049 87.6873 101.422C87.9348 100.542 87.939 99.7197 87.2815 98.9802C86.1771 97.7418 83.8693 97.4699 82.5005 98.4242L81.8953 98.7532L82.0127 97.8152C82.3012 95.8047 82.3591 93.8009 81.785 91.8203C81.0695 89.3517 79.2369 87.9312 76.5728 88.01C75.3312 88.0467 74.0275 88.2506 72.8778 88.6856C68.0432 90.5072 64.3256 93.733 61.1609 97.614C60.8675 97.9743 60.504 98.2763 60.0905 98.503C55.9996 100.683 51.896 102.837 47.7938 104.998L43.2278 107.403C42.0032 106.28 40.8903 105.115 39.6276 104.127C35.7714 101.104 31.8531 98.155 27.97 95.1658C24.5282 92.5163 21.1939 89.7568 18.6429 86.2483C16.7452 83.6383 15.5221 80.7822 15.4047 77.5551C15.2562 73.4429 16.4695 69.6856 18.6471 66.188C21.4328 61.7129 25.2324 58.1214 29.4096 54.8684C33.8285 51.4292 38.608 48.5093 43.5615 45.8436C50.4918 42.1148 57.6201 38.8142 65.2631 36.6352C73.0998 34.4003 81.0511 33.1212 89.2527 34.0129C92.4767 34.3636 95.6075 35.0732 98.4823 36.5889C100.684 37.7485 102.49 39.2669 103.33 41.6404C104.158 43.9758 104.133 46.3424 103.559 48.7146C102.392 53.5186 99.6559 57.4785 96.2127 61.0169C90.5649 66.8174 83.6756 70.7663 75.9195 73.375C71.4599 74.8768 66.8201 75.8283 62.1112 76.2066C58.2522 76.5179 54.4738 76.1889 50.8199 74.8988C48.4004 74.0438 46.2935 72.7361 44.5994 70.8384C44.2968 70.4985 43.9094 70.1302 43.3451 70.4482C42.7923 70.7609 42.6947 71.2666 42.8799 71.7791C43.1896 72.63 43.4752 73.5164 43.9574 74.2776C45.1693 76.1875 46.9369 77.5727 48.8826 78.7608C52.62 81.0459 56.7971 81.814 61.1284 81.9921C67.701 82.2653 74.1137 81.3219 80.436 79.6267C89.462 77.2071 97.31 72.9332 103.604 66.1907C108.845 60.5765 112.588 54.2404 113.389 46.5899C113.781 42.8557 113.364 39.1976 111.545 35.791C109.573 32.1003 106.436 29.3557 102.686 27.4648C97.2252 24.7121 91.3314 23.1094 85.2481 23.1094H79.1535C71.7862 23.1094 64.6636 25.1389 57.7403 27.56C52.4998 29.3938 47.3611 31.5579 42.3723 33.9531C31.508 39.1717 21.3904 45.4643 13.08 54.1167C8.93959 58.4273 5.43413 63.1837 3.41768 68.7844C2.80907 70.4565 2.28479 72.1559 1.84666 73.8766M41.2127 122.832C40.7419 128.893 37.884 133.807 33.2134 137.788C30.5861 140.025 27.5727 141.618 24.063 142.178C22.7903 142.381 21.488 142.43 20.2535 141.923C18.493 141.2 18.0985 139.698 18.0645 138.098C18.0122 135.547 18.9413 133.242 20.2153 131.048C21.8783 128.188 24.3161 126.007 26.9194 123.971C31.0202 120.761 35.4688 118.045 40.0249 115.482L40.3685 115.346C41.0728 117.847 41.4079 120.317 41.2127 122.832ZM76.7877 96.4884C76.4554 98.4242 76.0397 100.361 75.4514 102.237C73.418 108.731 70.8062 115.024 67.9824 121.232C67.4606 122.38 66.7012 123.429 66.0408 124.517C65.9285 124.685 65.794 124.837 65.6407 124.971C64.8233 125.748 64.0484 125.707 63.6355 124.691C63.1547 123.511 62.8592 122.249 62.6047 120.999C62.4336 120.161 62.4746 119.28 62.4209 118.421C62.476 112.312 64.4147 106.76 67.7038 101.592C69.0599 99.46 70.5362 97.4291 72.7916 96.0806C73.4932 95.6613 74.2524 95.3382 75.047 95.1209C76.249 94.796 76.9871 95.3302 76.7877 96.4884ZM101.059 126.215L109.782 116.424C110.145 120.06 103.716 127.319 101.059 126.215ZM128.92 119.626C128.303 119.966 127.632 120.211 127 120.525C126.421 120.813 126.23 120.522 126.213 120.044C126.205 119.712 126.249 119.382 126.345 119.064C127.523 115.07 129.691 111.66 132.916 108.887L133.142 108.776C134.677 112.902 132.903 117.432 128.92 119.626Z" fill="#04D0EF"/>
</svg>
