<svg width="164" height="111" viewBox="0 0 164 111" fill="none" xmlns="http://www.w3.org/2000/svg">
<mask id="mask0_676_203" style="mask-type:luminance" maskUnits="userSpaceOnUse" x="0" y="0" width="164" height="109">
<path d="M0 0H164V108.982H0V0Z" fill="white"/>
</mask>
<g mask="url(#mask0_676_203)">
<path fill-rule="evenodd" clip-rule="evenodd" d="M82 0C60.1333 0 46.4667 12.1091 41 36.3273C49.2 24.2182 58.7667 19.6773 69.7 22.7045C75.9381 24.4301 80.3964 29.4453 85.3316 34.9919C93.3707 44.03 102.676 54.4909 123 54.4909C144.867 54.4909 158.533 42.3818 164 18.1636C155.8 30.2727 146.233 34.8136 135.3 31.7864C129.062 30.0608 124.604 25.0456 119.668 19.499C111.629 10.4609 102.324 0 82 0ZM41 54.4909C19.1333 54.4909 5.46667 66.6 0 90.8182C8.2 78.7091 17.7667 74.1682 28.7 77.1955C34.9381 78.9244 39.3964 83.9362 44.3316 89.4828C52.3707 98.5209 61.6762 108.982 82 108.982C103.867 108.982 117.533 96.8727 123 72.6545C114.8 84.7636 105.233 89.3046 94.3 86.2773C88.0619 84.5517 83.6036 79.5365 78.6684 73.9899C70.6293 64.9518 61.3239 54.4909 41 54.4909Z" fill="#04D0EF"/>
</g>
</svg>
