<svg width="153" height="144" viewBox="0 0 153 144" fill="none" xmlns="http://www.w3.org/2000/svg">
<path d="M27.0215 52.7905H145.823V135.537H27.0215V52.7905Z" fill="white"/>
<path d="M1.78784 71.7839V121.984C1.78784 133.03 10.7421 141.984 21.7878 141.984H130.782C141.828 141.984 150.782 133.03 150.782 121.984V21.5837C150.782 10.538 141.828 1.58374 130.782 1.58374H21.7878C10.7421 1.58374 1.78784 10.538 1.78784 21.5837V71.7839ZM121.853 66.1794C121.853 66.1735 121.859 66.1691 121.865 66.1704C125.429 66.952 128.668 68.7097 131.174 71.2223C131.207 71.2545 131.24 71.2868 131.273 71.3192C133.881 73.9078 133.185 76.8637 130.074 78.8201C128.185 80.0086 126.061 81.3109 124.392 82.2859C124.249 82.3757 123.677 81.7917 123.045 80.9043C122.329 79.7403 121.312 78.7662 120.089 78.0729C118.865 77.3795 117.475 76.9896 116.048 76.9394C111.531 76.6474 108.623 78.8826 108.646 82.5555C108.609 83.4699 108.831 84.3772 109.29 85.1837C110.279 87.1269 112.127 88.2838 117.92 90.6425C128.588 94.9668 133.153 97.8198 135.99 101.875C139.16 106.367 139.864 113.623 137.718 118.992C135.334 124.833 129.494 128.798 121.233 130.112C117.461 130.519 113.649 130.481 109.886 130C104.119 129.104 98.8067 126.495 94.7244 122.553C93.8537 121.647 92.4587 119.816 91.5996 118.532C91.0132 117.655 91.2802 116.795 92.2213 116.319L97.7401 113.444L100.673 111.842C101.442 111.423 102.403 111.642 102.913 112.354C104.422 114.388 106.342 116.121 108.563 117.453C113.331 119.812 119.839 119.486 123.057 116.757C124.138 115.757 124.812 114.431 124.962 113.011C125.112 111.591 124.729 110.166 123.88 108.984C122.688 107.423 120.304 106.109 113.641 103.368C105.953 100.246 102.639 98.314 99.6114 95.2364C97.7214 93.2055 96.326 90.8095 95.523 88.2164C94.9241 85.2539 94.8356 82.2198 95.2608 79.2308C96.8461 72.2332 102.413 67.3473 110.542 65.8984C114.303 65.4598 118.112 65.5577 121.842 66.1886C121.848 66.1895 121.853 66.1852 121.853 66.1794ZM86.8814 72.0535C86.8814 75.2296 84.3067 77.8043 81.1306 77.8043H77.2087C71.8666 77.8043 67.536 82.1349 67.536 87.477V122.87C67.536 126.659 64.4648 129.73 60.6763 129.73C56.8878 129.73 53.8166 126.659 53.8166 122.87V87.4896C53.8166 82.1344 49.4753 77.7931 44.1201 77.7931H40.0395C36.9379 77.7931 34.4235 75.2787 34.4235 72.1771C34.3062 68.4171 36.6094 66.3029 40.3712 66.2881C45.1986 66.269 52.5863 66.269 60.7895 66.269H81.0249C84.2314 66.269 86.8417 68.8473 86.8814 72.0535Z" fill="#04D0EF"/>
</svg>
